<svg version="1.2" xmlns="http://www.w3.org/2000/svg" viewBox="0 0 955 195" width="955" height="195"><style>.a{fill:#fff}.b{fill:#4478ad}</style><path class="a" d="m36.4 124.7h-13.8l30.2-93.2h13.6z"/><path class="a" d="m85.7 101.4q4.8 0 7.4-0.7 2.6-0.7 2.6-2.8 0-1.4-0.8-2.4-0.8-1-2.2-1.7-1.5-0.7-3.4-1.3-1.9-0.7-3.9-1.3-2.9-0.9-6-2-3-1.2-5.5-2.9-2.4-1.7-4.1-4.3-1.6-2.7-1.6-6.7 0-3.2 1.3-6.1 1.2-2.8 3.8-5 2.7-2.3 6.8-3.5 4.1-1.2 9.8-1.2 5 0 9.2 0.7 4.3 0.8 7.4 2.2l-2 11.2q-1.9-0.5-5.8-1.8-3.8-1.2-8.7-1.2-5.1 0-6.8 1.2-1.8 1.3-1.8 2.7 0 1.1 0.8 2.1 0.8 0.9 2.1 1.6 1.4 0.8 3.2 1.5 1.8 0.7 3.8 1.3 2.9 1 6 2.2 3.2 1.2 5.7 3 2.5 1.7 4.2 4.5 1.6 2.7 1.6 6.7 0 3.2-1.2 6-1.2 2.8-3.9 4.8-2.8 2.1-7.2 3.2-4.4 1.2-10.9 1.2-6.6 0-11.2-1.5-4.7-1.5-7.5-2.7l2.1-11.1q3.8 1.5 8 2.8 4.3 1.3 8.7 1.3z"/><path fill-rule="evenodd" class="a" d="m115.7 86.5q0-6.6 2-11.7 2.1-5.1 5.4-8.5 3.3-3.4 7.7-5.1 4.3-1.7 8.8-1.7 11.2 0 17 6.6 5.9 6.6 5.9 19.4 0 1.3-0.1 2.7 0 1.4-0.2 2.2h-32.8q0 5 4.1 7.8 4.1 2.9 10.5 2.9 4 0 7.6-0.9 3.6-0.8 6.1-1.7l1.9 11.3q-3.5 1.2-7.4 2-3.9 0.8-8.7 0.8-6.5 0-11.6-1.6-5.1-1.7-8.7-5-3.7-3.3-5.6-8.1-1.9-4.9-1.9-11.4zm33.9-5.2q0-2.1-0.5-4-0.5-1.9-1.7-3.4-1.2-1.5-3.1-2.4-1.8-0.9-4.5-0.9-2.6 0-4.5 0.8-1.8 0.9-3.1 2.4-1.2 1.5-1.9 3.5-0.7 1.9-0.9 4z"/><path class="a" d="m210.4 74.2q-1.3-0.3-3.1-0.6-1.8-0.3-3.6-0.6-1.8-0.3-3.5-0.4-1.8-0.1-3-0.1-2.8 0-5.5 0.3-2.7 0.3-5.5 1v37.6h-13.3v-47.3q5.3-1.9 10.8-3.1 5.6-1.2 13-1.2 1.1 0 3.1 0.1 2 0.1 4.2 0.4 2.3 0.2 4.6 0.6 2.3 0.4 4.2 1z"/><path class="a" d="m237.6 111.4q-4.8-9.5-9.8-22.4-5.1-12.9-9.6-28.2h13.9q1 4.1 2.3 8.7 1.4 4.6 2.9 9.3 1.5 4.7 3.1 9.1 1.5 4.5 2.9 8.1 1.4-3.6 3.2-8.1 1.7-4.4 3.4-9.1 1.6-4.7 3.2-9.3 1.6-4.6 2.5-8.7h13.5q-4.5 15.3-10 28.2-5.5 12.9-10.4 22.4z"/><path fill-rule="evenodd" class="a" d="m271.1 86.5q0-6.6 2-11.7 2.1-5.1 5.4-8.5 3.4-3.4 7.7-5.1 4.3-1.7 8.8-1.7 11.2 0 17.1 6.6 5.8 6.6 5.8 19.4 0 1.3-0.1 2.7 0 1.4-0.1 2.2h-32.9q0 5 4.1 7.8 4.1 2.9 10.5 2.9 4 0 7.7-0.9 3.6-0.8 6-1.7l1.9 11.3q-3.5 1.2-7.4 2-3.8 0.8-8.7 0.8-6.5 0-11.6-1.6-5.1-1.7-8.7-5-3.6-3.3-5.6-8.1-1.9-4.9-1.9-11.4zm34-5.2q0-2.1-0.6-4-0.5-1.9-1.7-3.4-1.2-1.5-3-2.4-1.9-0.9-4.6-0.9-2.5 0-4.4 0.8-1.9 0.9-3.2 2.4-1.2 1.5-1.9 3.5-0.7 1.9-0.9 4z"/><path class="a" d="m365.8 74.2q-1.3-0.3-3-0.6-1.8-0.3-3.7-0.6-1.8-0.3-3.5-0.4-1.7-0.1-2.9-0.1-2.8 0-5.5 0.3-2.7 0.3-5.5 1v37.6h-13.4v-47.3q5.3-1.9 10.8-3.1 5.6-1.2 13-1.2 1.1 0 3.1 0.1 2 0.1 4.3 0.4 2.2 0.2 4.5 0.6 2.4 0.4 4.2 1z"/><path class="a" d="m414 109.3q-0.3 0.2-1.5 0.7-1.1 0.6-2.9 1.2-1.9 0.6-4.5 1-2.6 0.4-6 0.4-9.1 0-13.4-5.4-4.2-5.5-4.2-15.9v-43h-14v-11h27.3v55q0 5.1 2.1 7 2 1.8 5.1 1.8 4 0 6.7-1.1 2.7-1.1 3.6-1.4z"/><path fill-rule="evenodd" class="a" d="m418.2 86.5q0-6.6 2-11.7 2.1-5.1 5.4-8.5 3.4-3.4 7.7-5.1 4.3-1.7 8.8-1.7 11.2 0 17.1 6.6 5.8 6.6 5.8 19.4 0 1.3-0.1 2.7 0 1.4-0.1 2.2h-32.9q0 5 4.1 7.8 4.1 2.9 10.6 2.9 3.9 0 7.6-0.9 3.6-0.8 6-1.7l1.9 11.3q-3.5 1.2-7.4 2-3.8 0.8-8.7 0.8-6.5 0-11.6-1.6-5.1-1.7-8.7-5-3.6-3.3-5.6-8.1-1.9-4.9-1.9-11.4zm34-5.2q0-2.1-0.6-4-0.5-1.9-1.7-3.4-1.2-1.5-3-2.4-1.9-0.9-4.6-0.9-2.5 0-4.4 0.8-1.9 0.9-3.2 2.4-1.2 1.5-1.9 3.5-0.7 1.9-0.9 4z"/><path class="a" d="m490.7 101.4q4.9 0 7.5-0.7 2.6-0.7 2.6-2.8 0-1.4-0.9-2.4-0.8-1-2.2-1.7-1.5-0.7-3.4-1.3-1.9-0.7-3.9-1.3-2.9-0.9-5.9-2-3.1-1.2-5.5-2.9-2.5-1.7-4.1-4.3-1.6-2.7-1.6-6.7 0-3.2 1.2-6.1 1.2-2.8 3.9-5 2.6-2.3 6.7-3.5 4.1-1.2 9.8-1.2 5 0 9.3 0.7 4.2 0.8 7.3 2.2l-2 11.2q-1.8-0.5-5.7-1.8-3.9-1.2-8.8-1.2-5 0-6.8 1.2-1.8 1.3-1.8 2.7 0 1.1 0.8 2.1 0.8 0.9 2.2 1.6 1.3 0.8 3.1 1.5 1.8 0.7 3.8 1.3 2.9 1 6.1 2.2 3.1 1.2 5.6 3 2.6 1.7 4.2 4.5 1.6 2.7 1.6 6.7 0 3.2-1.2 6-1.2 2.8-3.9 4.8-2.8 2.1-7.2 3.2-4.4 1.2-10.9 1.2-6.6 0-11.2-1.5-4.6-1.5-7.4-2.7l2-11.1q3.8 1.5 8 2.8 4.3 1.3 8.7 1.3z"/><path class="a" d="m540.3 101.4q4.8 0 7.4-0.7 2.6-0.7 2.6-2.8 0-1.4-0.8-2.4-0.8-1-2.3-1.7-1.4-0.7-3.3-1.3-1.9-0.7-4-1.3-2.9-0.9-5.9-2-3-1.2-5.5-2.9-2.5-1.7-4.1-4.3-1.6-2.7-1.6-6.7 0-3.2 1.2-6.1 1.3-2.8 3.9-5 2.7-2.3 6.7-3.5 4.1-1.2 9.9-1.2 4.9 0 9.2 0.7 4.2 0.8 7.4 2.2l-2.1 11.2q-1.8-0.5-5.7-1.8-3.9-1.2-8.7-1.2-5.1 0-6.9 1.2-1.8 1.3-1.8 2.7 0 1.1 0.9 2.1 0.8 0.9 2.1 1.6 1.4 0.8 3.1 1.5 1.8 0.7 3.9 1.3 2.9 1 6 2.2 3.1 1.2 5.7 3 2.5 1.7 4.1 4.5 1.6 2.7 1.6 6.7 0 3.2-1.1 6-1.2 2.8-4 4.8-2.7 2.1-7.2 3.2-4.4 1.2-10.8 1.2-6.6 0-11.3-1.5-4.6-1.5-7.4-2.7l2-11.1q3.8 1.5 8.1 2.8 4.2 1.3 8.7 1.3z"/><path class="a" d="m581.3 124.7h-13.8l30.2-93.2h13.6z"/><path class="a" d="m891.5 125.5h-286.6l27.4-95.2h286.7z"/><path fill-rule="evenodd" class="b" d="m656.4 49h23.4c18.6 0 31.4 11.8 31.4 29.7 0 17.9-12.8 29.6-31.4 29.6h-23.4zm23.4 48.1c11.7 0 18.6-8.4 18.6-18.5 0-10.4-6.4-18.5-18.6-18.5h-10.8v37z"/><path fill-rule="evenodd" class="b" d="m755.2 98.1h-26.5l-3.7 10.2h-13.9l22.9-59.3h15.9l22.8 59.3h-13.8zm-23.1-10.9h19.7l-9.8-27.2z"/><path class="b" d="m787.6 84l-22.8-35h14.4l14.7 23.8 14.6-23.8h14.4l-22.7 35v24.3h-12.6z"/><path class="b" d="m828.7 90.3c4.1 4.4 10.6 8 18.8 8 6.9 0 10.3-3.3 10.3-6.6 0-4.5-5.1-6-12-7.6-9.7-2.2-22.1-4.9-22.1-18.1 0-9.9 8.5-17.9 22.5-17.9 9.4 0 17.2 2.9 23.1 8.3l-7.1 9.2c-4.8-4.4-11.1-6.4-16.9-6.4-5.7 0-8.7 2.4-8.7 6 0 4 4.9 5.2 11.8 6.8 9.8 2.3 22.2 5.2 22.2 18.3 0 10.9-7.7 19-23.7 19-11.4 0-19.6-3.8-25.2-9.4z"/><path class="a" d="m549.1 128.6h-22.2c-1.8 0-3.2-1.4-3.2-3.1 0-1.8 1.4-3.2 3.2-3.2h22.2c1.7 0 3.2 1.4 3.2 3.2 0 1.7-1.5 3.1-3.2 3.1zm-41.3 0h-22.2c-1.7 0-3.1-1.4-3.1-3.1 0-1.8 1.4-3.2 3.1-3.2h22.2c1.8 0 3.2 1.4 3.2 3.2 0 1.7-1.4 3.1-3.2 3.1zm-41.2 0h-22.2c-1.7 0-3.2-1.4-3.2-3.1 0-1.8 1.5-3.2 3.2-3.2h22.2c1.8 0 3.2 1.4 3.2 3.2 0 1.7-1.4 3.1-3.2 3.1zm-41.2 0h-22.2c-1.8 0-3.2-1.4-3.2-3.1 0-1.8 1.4-3.2 3.2-3.2h22.2c1.7 0 3.1 1.4 3.1 3.2 0 1.7-1.4 3.1-3.1 3.1zm-41.3 0h-22.2c-1.7 0-3.1-1.4-3.1-3.1 0-1.8 1.4-3.2 3.1-3.2h22.2c1.8 0 3.2 1.4 3.2 3.2 0 1.7-1.4 3.1-3.2 3.1zm-41.2 0h-22.2c-1.8 0-3.2-1.4-3.2-3.1 0-1.8 1.4-3.2 3.2-3.2h22.2c1.8 0 3.2 1.4 3.2 3.2 0 1.7-1.4 3.1-3.2 3.1zm-41.2 0h-22.2c-1.8 0-3.2-1.4-3.2-3.1 0-1.8 1.4-3.2 3.2-3.2h22.2c1.7 0 3.1 1.4 3.1 3.2 0 1.7-1.4 3.1-3.1 3.1zm-41.3 0h-22.2c-1.7 0-3.1-1.4-3.1-3.1 0-1.8 1.4-3.2 3.1-3.2h22.2c1.8 0 3.2 1.4 3.2 3.2 0 1.7-1.4 3.1-3.2 3.1zm-41.2 0h-22.2c-1.8 0-3.2-1.4-3.2-3.1 0-1.8 1.4-3.2 3.2-3.2h22.2c1.7 0 3.2 1.4 3.2 3.2 0 1.7-1.5 3.1-3.2 3.1zm-41.2 0h-22.2c-1.8 0-3.2-1.4-3.2-3.1 0-1.8 1.4-3.2 3.2-3.2h22.2c1.7 0 3.1 1.4 3.1 3.2 0 1.7-1.4 3.1-3.1 3.1zm-41.3 0h-22.2c-1.7 0-3.1-1.4-3.1-3.1 0-1.8 1.4-3.2 3.1-3.2h22.2c1.8 0 3.2 1.4 3.2 3.2 0 1.7-1.4 3.1-3.2 3.1zm-41.2 0h-22.2c-1.8 0-3.2-1.4-3.2-3.1 0-1.8 1.4-3.2 3.2-3.2h22.2c1.7 0 3.2 1.4 3.2 3.2 0 1.7-1.5 3.1-3.2 3.1z"/><path fill-rule="evenodd" class="a" d="m511.5 176v-37h12.2l8.4 19.8 8.5-19.8h12.1v37h-9v-27.1l-8.6 20h-6l-8.5-20v27.1zm75.3 0l-2.4-6.7h-14.9l-2.3 6.7h-9.6l13.7-37h11.3l13.8 37zm-9.8-28.3l-5.1 14.7h10.1zm24.3 28.3v-37h10.7l13.4 25.4v-25.4h9.1v37h-10.7l-13.4-25.4v25.4zm71.8-9.7v7.7q-2.7 1.4-5.5 2-2.9 0.7-6 0.7-9.2 0-14.6-5.1-5.4-5.2-5.4-14 0-8.9 5.4-14.1 5.4-5.1 14.6-5.1 3.1 0 6 0.6 2.8 0.7 5.5 2.1v7.7q-2.7-1.8-5.3-2.7-2.5-0.8-5.4-0.8-5.1 0-8 3.2-2.9 3.3-2.9 9.1 0 5.7 2.9 9 2.9 3.2 8 3.2 2.9 0 5.4-0.8 2.6-0.9 5.3-2.7zm7.9 9.7v-37h9.5v14.1h14.1v-14.1h9.5v37h-9.5v-15.7h-14.1v15.7zm42.5 0v-37h25.7v7.2h-16.2v6.9h15.3v7.2h-15.3v8.5h16.8v7.2zm60.4-35.8v7.8q-3.1-1.3-6-2-2.9-0.7-5.4-0.7-3.4 0-5.1 0.9-1.6 1-1.6 2.9 0 1.5 1.1 2.4 1.1 0.8 4 1.4l4 0.8q6.2 1.2 8.8 3.8 2.6 2.5 2.6 7.1 0 6.2-3.6 9.2-3.6 2.9-11.1 2.9-3.5 0-7.1-0.6-3.5-0.7-7-2v-8.1q3.5 1.9 6.8 2.9 3.3 0.9 6.4 0.9 3.1 0 4.8-1 1.6-1.1 1.6-3 0-1.7-1.1-2.7-1.1-0.9-4.5-1.7l-3.7-0.8q-5.5-1.2-8.1-3.8-2.6-2.6-2.6-7 0-5.5 3.6-8.5 3.6-2.9 10.3-2.9 3 0 6.2 0.4 3.2 0.5 6.7 1.4zm6.4 6v-7.2h34.1v7.2h-12.3v29.8h-9.5v-29.8zm39 29.8v-37h25.8v7.2h-16.3v6.9h15.3v7.2h-15.3v8.5h16.8v7.2zm46.9-14h-2.7v14h-9.5v-37h14.5q7.4 0 10.7 2.5 3.5 2.4 3.5 7.7 0 3.7-1.8 6.1-1.8 2.3-5.3 3.4 1.9 0.5 3.4 2.1 1.6 1.5 3.2 4.7l5.2 10.5h-10.2l-4.5-9.2q-1.4-2.7-2.8-3.8-1.4-1-3.7-1zm-2.7-6.6h4q3 0 4.3-1.1 1.3-1.1 1.3-3.7 0-2.5-1.3-3.6-1.3-1.1-4.3-1.1h-4z"/></svg>