<?xml version="1.0" standalone="no"?>
<!DOCTYPE svg PUBLIC "-//W3C//DTD SVG 20010904//EN"
 "http://www.w3.org/TR/2001/REC-SVG-20010904/DTD/svg10.dtd">
<svg version="1.0" xmlns="http://www.w3.org/2000/svg"
 width="260.000000pt" height="260.000000pt" viewBox="0 0 260.000000 260.000000"
 preserveAspectRatio="xMidYMid meet">
<metadata>
Created by potrace 1.14, written by Peter Selinger 2001-2017
</metadata>
<g transform="translate(0.000000,260.000000) scale(0.100000,-0.100000)"
fill="#000000" stroke="none">
<path d="M685 2321 c-52 -14 -100 -38 -127 -62 -95 -89 -93 -278 3 -352 44
-33 94 -52 202 -77 141 -32 171 -56 158 -124 -16 -82 -175 -91 -348 -21 l-83
33 0 -87 0 -88 73 -21 c96 -28 133 -34 225 -36 162 -4 264 40 313 135 33 62
33 187 0 245 -40 70 -87 93 -296 143 -96 22 -127 43 -127 85 0 35 27 64 71 76
55 14 171 3 253 -25 40 -14 73 -25 73 -25 0 0 0 38 0 85 1 84 0 84 -27 90 -15
4 -30 6 -33 6 -2 0 -19 5 -37 10 -44 13 -255 20 -293 10z"/>
<path d="M284 2309 c-2 -4 -22 -62 -43 -130 -89 -281 -125 -394 -126 -399 -1
-6 -4 -15 -66 -213 -28 -88 -48 -161 -45 -164 9 -9 94 -10 107 -2 7 4 14 13
15 21 1 7 21 72 44 143 23 72 50 157 60 190 10 33 30 97 44 143 100 317 126
404 126 412 0 9 -110 8 -116 -1z"/>
<path d="M1319 2311 c-1 -3 -3 -187 -4 -409 l-1 -403 189 2 c283 3 376 27 469
123 53 53 81 106 98 181 10 45 14 144 7 175 -2 8 -7 31 -11 50 -14 61 -52 124
-105 173 -58 55 -114 81 -203 97 -68 13 -437 22 -439 11z m413 -179 c89 -39
132 -114 131 -228 -2 -164 -106 -253 -283 -242 l-55 3 -1 240 c0 132 1 243 3
246 7 15 161 1 205 -19z"/>
<path d="M2386 2176 c-25 -78 -83 -262 -130 -411 -46 -148 -91 -289 -99 -312
-8 -23 -11 -45 -8 -50 3 -5 30 -9 58 -9 61 1 52 -15 113 186 23 74 45 146 50
160 5 14 30 93 56 175 25 83 59 193 76 245 16 52 31 102 33 110 2 8 6 22 9 30
5 13 -4 16 -54 16 l-60 1 -44 -141z"/>
<path d="M1373 1125 c-161 -35 -267 -146 -291 -305 -11 -71 -7 -143 9 -205 44
-162 192 -265 383 -267 87 -1 128 6 198 32 l54 20 -2 77 c-2 95 0 89 -21 70
-28 -24 -137 -57 -190 -57 -100 0 -165 36 -206 114 -17 33 -21 58 -21 131 0
122 10 153 71 210 66 60 206 66 307 12 23 -12 45 -22 51 -22 5 0 10 30 10 68
1 49 -3 71 -14 81 -50 44 -226 65 -338 41z"/>
<path d="M75 1120 c-2 -3 -3 -175 -3 -383 l-1 -377 95 0 94 0 0 278 1 277 84
-195 c46 -107 86 -199 88 -204 4 -12 126 -13 131 -1 16 38 141 328 156 360 18
40 18 40 18 -210 1 -138 1 -262 1 -277 l1 -28 93 0 92 0 -1 378 c-1 207 -2
379 -3 382 -2 10 -240 5 -249 -5 -5 -6 -37 -77 -72 -160 -34 -82 -72 -170 -83
-193 l-20 -44 -86 204 -87 203 -123 0 c-67 0 -124 -2 -126 -5z"/>
<path d="M1901 1122 c-8 -3 -11 -112 -11 -383 l0 -379 98 0 99 0 -1 143 -1
142 45 3 c75 5 104 -22 178 -165 l63 -123 104 0 105 0 -70 139 c-68 136 -124
211 -158 211 -9 0 4 13 29 28 81 53 104 100 96 197 -8 102 -65 161 -177 180
-46 8 -378 14 -399 7z m355 -167 c21 -21 25 -33 22 -77 -4 -68 -28 -86 -120
-91 -45 -3 -68 0 -69 7 -1 6 -2 50 -3 99 l-1 87 73 0 c64 0 76 -3 98 -25z"/>
</g>
</svg>
