<?xml version="1.0" standalone="no"?>
<!DOCTYPE svg PUBLIC "-//W3C//DTD SVG 20010904//EN"
 "http://www.w3.org/TR/2001/REC-SVG-20010904/DTD/svg10.dtd">
<svg version="1.0" xmlns="http://www.w3.org/2000/svg"
 width="1377.000000pt" height="1377.000000pt" viewBox="0 0 1377.000000 1377.000000"
 preserveAspectRatio="xMidYMid meet">
<metadata>
Created by potrace 1.14, written by Peter Selinger 2001-2017
</metadata>
<g transform="translate(0.000000,1377.000000) scale(0.100000,-0.100000)"
fill="#000000" stroke="none">
<path d="M1780 13760 c-158 -21 -182 -25 -284 -51 -340 -87 -657 -265 -901
-506 -326 -322 -532 -744 -582 -1189 -10 -89 -10 -10389 0 -10473 34 -289 151
-584 326 -821 30 -41 60 -80 65 -86 6 -6 36 -39 66 -74 84 -96 259 -237 385
-313 66 -39 254 -127 325 -151 71 -24 217 -61 284 -72 17 -2 63 -8 101 -13 78
-11 10947 -10 10980 0 11 4 40 10 65 13 82 13 274 77 365 123 195 97 382 251
511 422 83 109 201 347 230 461 26 108 34 147 41 201 10 84 10 11299 0 11364
-15 96 -18 110 -28 148 -62 235 -183 449 -349 617 -83 85 -226 200 -248 200
-5 0 -12 3 -14 8 -4 10 -132 76 -198 102 -56 23 -164 57 -210 67 -154 32 -78
32 -5530 31 -2940 0 -5370 -4 -5400 -8z"/>
</g>
</svg>
