<svg xmlns="http://www.w3.org/2000/svg" xmlns:xlink="http://www.w3.org/1999/xlink" viewBox="0 0 524.24 154.32"><defs><style>.cls-1{fill:url(#linear-gradient);}.cls-2{fill:url(#linear-gradient-2);}.cls-3{fill:url(#linear-gradient-3);}.cls-4{fill:url(#linear-gradient-4);}.cls-5{fill:url(#linear-gradient-5);}.cls-6{fill:url(#linear-gradient-6);}.cls-7{fill:url(#linear-gradient-7);}.cls-8{fill:#e51f8b;}.cls-9{fill:#e53c96;}.cls-10{fill:#e68bb2;}.cls-11{fill:#e980b3;}.cls-12{fill:#fff;}</style><linearGradient id="linear-gradient" x1="69.29" y1="4430.05" x2="152.91" y2="4502.7" gradientTransform="matrix(1, 0, 0, -1, 0, 4479.53)" gradientUnits="userSpaceOnUse"><stop offset="0.53" stop-color="#3fb7cf"/><stop offset="0.57" stop-color="#00a1bf"/></linearGradient><linearGradient id="linear-gradient-2" x1="85.15" y1="4411.79" x2="168.78" y2="4484.44" xlink:href="#linear-gradient"/><linearGradient id="linear-gradient-3" x1="117.19" y1="4374.91" x2="200.82" y2="4447.56" xlink:href="#linear-gradient"/><linearGradient id="linear-gradient-4" x1="148.62" y1="4338.73" x2="232.25" y2="4411.38" xlink:href="#linear-gradient"/><linearGradient id="linear-gradient-5" x1="167.02" y1="4317.55" x2="250.65" y2="4390.2" xlink:href="#linear-gradient"/><linearGradient id="linear-gradient-6" x1="188.32" y1="4293.04" x2="271.95" y2="4365.69" xlink:href="#linear-gradient"/><linearGradient id="linear-gradient-7" x1="202.16" y1="4277.1" x2="285.79" y2="4349.75" xlink:href="#linear-gradient"/></defs><title>c4u-logo</title><g id="Layer_2" data-name="Layer 2"><g id="Layer_1-2" data-name="Layer 1"><path class="cls-1" d="M0,84.63Q0,71,8.15,62.22c5.43-5.84,12.77-8.7,21.87-8.7A31.27,31.27,0,0,1,42.38,55.7c4.76,2,7.07,5,7.07,9.1a7.62,7.62,0,0,1-2,5.3,6.69,6.69,0,0,1-5.16,2.17A13.75,13.75,0,0,1,37,70.91,17,17,0,0,0,30,69.55,10.82,10.82,0,0,0,20.78,74a17.48,17.48,0,0,0-2.85,10.32c0,4.35.95,7.75,3,10.33A11.92,11.92,0,0,0,30.7,99a15.8,15.8,0,0,0,6.79-1.36,15.44,15.44,0,0,1,5.17-1.35,6,6,0,0,1,4.89,2.17,8.17,8.17,0,0,1,1.9,5.3q0,5.29-7.34,9c-3.53,1.77-7.88,2.59-13.17,2.59q-13.25,0-21.2-9C2.58,100.8,0,93.46,0,84.63Z"/><path class="cls-2" d="M70.78,59.64c3.26-3.4,8.28-5.16,14.8-5.16,14.13,0,21.2,7.6,21.2,22.68v25.13c0,8.56-2.86,12.77-8.7,12.77s-8.69-4.21-8.69-12.77V82.46c0-4.35-.55-7.34-1.5-9.24C86.54,70.64,84,69.28,80,69.28c-6.11,0-9.23,4.35-9.23,12.91v20c0,8.56-3,12.77-8.83,12.77s-9-4.21-9-12.77V42.25c0-8.56,3-12.77,9-12.77s8.83,4.21,8.83,12.77Z"/><path class="cls-3" d="M126.88,89.52a10.59,10.59,0,0,0,4.21,7.75,15,15,0,0,0,9,2.71c3,0,6.52-1,10.73-2.85s6.79-2.85,7.74-2.85c4.62,0,6.93,2.31,6.93,6.79a9,9,0,0,1-1.9,5.16c-2.31,3.13-6,5.57-11,7.2a39.55,39.55,0,0,1-13.32,2.18q-13,0-21.6-9a30.8,30.8,0,0,1-8.69-22,31.58,31.58,0,0,1,8.29-22.14,27.19,27.19,0,0,1,21-9.24,28.82,28.82,0,0,1,11.55,2.31,29.12,29.12,0,0,1,12.23,10.33,25.63,25.63,0,0,1,4.75,14.8,8.08,8.08,0,0,1-3.12,6.66,11.47,11.47,0,0,1-7.07,2H126.88Zm-.13-11.41H149.7a10.79,10.79,0,0,0-3.53-7.47,11.36,11.36,0,0,0-7.74-2.85,10.88,10.88,0,0,0-7.74,2.85A12.5,12.5,0,0,0,126.75,78.11Z"/><path class="cls-4" d="M170.08,102.29V67.11q0-12.63,8.56-12.63c3.67,0,6.52,1.9,8.69,5.56,3.26-3.66,7.88-5.56,14-5.56,7.6,0,13.45,2.71,17.39,8,4.89-5.3,10.73-8,17.66-8,13.17,0,19.83,7.6,19.83,22.68v25.13c0,8.56-2.85,12.77-8.69,12.77s-8.43-4.21-8.43-12.77V82.46q0-13-8.15-13c-6,0-9,4.35-9,12.9v20c0,8.56-2.86,12.77-8.56,12.77s-8.56-4.21-8.56-12.77V82.46c0-8.69-2.72-13-8-13-6,0-9,4.35-9,12.9v20c0,8.56-2.85,12.77-8.56,12.77C173.07,115.06,170.08,110.72,170.08,102.29Z"/><path class="cls-5" d="M260.42,39.53a9.13,9.13,0,0,1,3-7.06,10.08,10.08,0,0,1,7.2-2.86,9.53,9.53,0,0,1,7.06,2.86,9.7,9.7,0,0,1,2.86,7.06,9.75,9.75,0,0,1-9.92,9.92,9.84,9.84,0,0,1-7.2-2.85A8.78,8.78,0,0,1,260.42,39.53Zm18.75,62.76c0,8.56-2.86,12.77-8.7,12.77s-8.69-4.21-8.69-12.77V67.11c0-8.42,2.85-12.63,8.69-12.63s8.7,4.21,8.7,12.63Z"/><path class="cls-6" d="M304.57,115.74c-9.78,0-16.44-2.71-20-8a8.82,8.82,0,0,1-1.63-5c0-5.3,2.72-7.88,8.15-7.88,1.63,0,3.81.82,6.66,2.58a15.33,15.33,0,0,0,8,2.58c3.26,0,4.89-1.22,4.89-3.53,0-1.49-2.31-3.26-6.79-5.3-6.25-2.85-10.46-5-12.5-6.65-4.48-3.4-6.79-7.47-6.79-12.36a17,17,0,0,1,6.66-14,24,24,0,0,1,15.08-5,29.74,29.74,0,0,1,10.46,1.76,16.53,16.53,0,0,1,8.56,6,8.39,8.39,0,0,1,1.49,4.48,7.6,7.6,0,0,1-2,5.3,7.17,7.17,0,0,1-5.16,2.17c-1.49,0-3.8-.67-6.79-2.17s-5.44-2.17-7.2-2.17c-2.72,0-3.94,1-3.94,3,0,1.63,1.09,2.85,3.39,3.66,4.9,1.91,8.43,3.26,10.47,4.35,4.07,2,7.06,4.08,9.1,6.39a14.16,14.16,0,0,1,3.53,9.78,17.23,17.23,0,0,1-7.47,14.67A25.27,25.27,0,0,1,304.57,115.74Z"/><path class="cls-7" d="M339.89,71.32c-6.93,0-10.46-2.58-10.46-7.61S333,56.24,339.89,56c0-7.06.14-11.28.41-12.77,1.09-5.16,3.8-7.74,8.29-7.74s7.06,2.58,8.15,7.74c.27,1.49.4,5.71.4,12.77q12.64,0,12.64,7.74c0,5-4.21,7.61-12.64,7.61v31c0,8.56-2.85,12.77-8.69,12.77s-8.69-4.21-8.69-12.77v-31Z"/><path class="cls-8" d="M369.91,77.16a77.17,77.17,0,1,1,77.17,77.16,77.12,77.12,0,0,1-77.17-77.16"/><path class="cls-9" d="M498.43,25.81A72.27,72.27,0,0,0,447.08,4.48a66.8,66.8,0,0,0-11.69,1.09c-3.12,8-8.42,26.49-6.52,53.25,2.45,33.69-23.77,53-43.88,55.56A72.64,72.64,0,0,0,519.89,77a72.69,72.69,0,0,0-21.46-51.22"/><path class="cls-10" d="M447.48,4.21a73.35,73.35,0,0,0-18.06,2.31c1.9-.14,3.94-.27,5.84-.27.13-.27.13-.41.27-.68a66.6,66.6,0,0,1,11.68-1.09,72.69,72.69,0,0,1,59.91,113.84c-.14.14-.14.41-.27.55a73.63,73.63,0,0,0,13-41.71C519.75,37,487.29,4.21,447.48,4.21"/><path class="cls-11" d="M447.08,4.48a66.8,66.8,0,0,0-11.69,1.09c-.13.27-.13.41-.27.68h.41c42.79,0,77.57,36.13,77.57,80.42a81.83,81.83,0,0,1-6.39,31.65,72.58,72.58,0,0,0-8.56-92.51A71.6,71.6,0,0,0,447.08,4.48"/><path class="cls-12" d="M449.39,103v11.14c0,7.88-3.54,11.82-10.74,11.82-6.25,0-9.51-4.21-9.51-12.5V103H400.21a16,16,0,0,1-9.92-3.12c-2.72-2-3.94-5-3.94-8.83,0-5.16,2.18-11.28,6.66-18.34l22.55-35.87c4.48-7.06,9.92-10.46,16.57-10.46,6,0,10.6,2.31,13.59,7.07,2.44,3.94,3.67,9,3.67,15.35V84.36c7.06,0,10.59,3.13,10.59,9.51C460,99.85,456.45,103,449.39,103Zm-43.2-18.74h22.95V47.28Z"/><path class="cls-12" d="M463.92,72.14V53.25c0-5,1.77-7.61,5.3-7.61s5.3,2.59,5.3,7.61V70.91c0,8.29,3.12,12.36,9.37,12.36s9.37-4.07,9.37-12.36V53.25c0-5,1.77-7.61,5.3-7.61s5.3,2.59,5.3,7.61V72.14c0,6.52-1.63,11.68-5,15.48s-8.55,6-14.94,6-11.55-2-14.94-6C465.69,84,463.92,78.79,463.92,72.14Z"/></g></g></svg>