<svg xmlns="http://www.w3.org/2000/svg" viewBox="0 0 179 27"> <path d="M3.3096 17.551c.2577 3.4586 2.9433 5.741 6.8806 5.741 3.4586 0 5.9233-1.5829 5.9233-4.3789 0-3.201-3.1641-3.8636-7.0645-4.5263C4.8909 13.6874.6223 12.3271.6223 7.3223.6241 2.9433 4.1932 0 9.4171 0c5.7393 0 9.2716 3.201 9.5661 7.8376h-3.3114c-.3682-2.98-2.7592-4.9311-6.2547-4.9311S3.825 4.379 3.825 7.1382c0 3.0905 3.1273 3.7163 6.9909 4.379 4.1949.6994 8.5002 2.0966 8.5002 7.1014 0 4.4526-3.7531 7.5799-9.1611 7.5799-6.2915 0-9.971-3.5691-10.1551-8.6475h3.3114-.0017ZM33.0016 16.5936c0-5.7025 3.6059-9.6029 8.9034-9.6029 5.2976 0 8.758 3.3482 8.9053 8.9035 0 .4049-.0369.8467-.0737 1.2884H36.1657v.2577c.1105 3.5691 2.3543 6.0706 5.9234 6.0706 2.6488 0 4.7103-1.3988 5.3361-3.8267h3.0537c-.7362 3.7531-3.8267 6.5123-8.1689 6.5123-5.6289 0-9.3084-3.8636-9.3084-9.6029Zm14.5709-1.9125c-.2945-3.2378-2.5015-5.0416-5.6289-5.0416-2.7592 0-5.2975 1.9879-5.592 5.0416h11.2226-.0017ZM71.3414 23.2182v2.7592h-1.6548c-2.5015 0-3.3482-1.0676-3.385-2.9065-1.178 1.6917-3.0537 3.1274-6.2915 3.1274-4.1213 0-6.9173-2.0615-6.9173-5.4834 0-3.7531 2.6119-5.8497 7.5431-5.8497h5.5184v-1.2885c0-2.4279-1.7284-3.9004-4.6734-3.9004-2.6488 0-4.4158 1.2516-4.784 3.1642H53.68c.4418-3.6796 3.4219-5.8498 7.9481-5.8498 4.7839 0 7.5431 2.3911 7.5431 6.7701v8.2058c0 .9939.3682 1.2516 1.2131 1.2516h.9571Zm-5.1871-5.8129h-5.8129c-2.6856 0-4.1949.9939-4.1949 3.1273 0 1.8389 1.5812 3.0905 4.0845 3.0905 3.7531 0 5.9233-2.1702 5.9233-5.2975v-.9203ZM101.218 15.1597v10.8177h-3.0169V15.3437c0-3.6795-1.6198-5.592-4.4526-5.592-3.1274 0-5.0416 2.3543-5.0416 6.181v10.0447H85.69V15.3437c0-3.6795-1.6549-5.592-4.5263-5.592-3.0905 0-4.968 2.5751-4.968 6.3283v9.8974h-3.0169V7.2116h2.612l.4049 2.5751c.994-1.362 2.5752-2.796 5.4817-2.796 2.6119 0 4.8557 1.178 5.9233 3.5691 1.1412-2.0247 3.1642-3.569 6.5124-3.569 3.9004 0 7.1009 2.2438 7.1009 8.1689h.004ZM121.416 15.5281v10.4496h-3.017V15.7122c0-3.9005-1.877-5.9602-5.115-5.9602-3.495 0-5.666 2.6119-5.666 6.8437v9.382h-3.017V1.8582L107.618.221v10.0815c1.105-1.7652 3.017-3.3114 6.181-3.3114 4.195 0 7.617 2.3175 7.617 8.5371ZM142.352 23.2182v2.7592h-1.657c-2.501 0-3.348-1.0676-3.385-2.9065-1.178 1.6917-3.053 3.1274-6.291 3.1274-4.121 0-6.917-2.0615-6.917-5.4834 0-3.7531 2.612-5.8497 7.543-5.8497h5.518v-1.2885c0-2.4279-1.728-3.9004-4.673-3.9004-2.649 0-4.416 1.2516-4.784 3.1642h-3.017c.442-3.6796 3.422-5.8498 7.948-5.8498 4.782 0 7.543 2.3911 7.543 6.7701v8.2058c0 .9939.368 1.2516 1.215 1.2516h.957Zm-5.189-5.8129h-5.813c-2.685 0-4.195.9939-4.195 3.1273 0 1.8389 1.583 3.0905 4.085 3.0905 3.753 0 5.923-2.1702 5.923-5.2975v-.9203ZM157.326 7.212h3.017v18.764h-2.612l-.405-2.5015c-1.105 1.3989-2.907 2.7224-5.997 2.7224-4.122 0-7.396-2.3175-7.396-8.5371V7.2102h3.017v10.2655c0 3.9005 1.765 5.9602 4.894 5.9602 3.422 0 5.483-2.6119 5.483-6.8437v-9.382l-.001.0018ZM166.303 19.7965c.11 2.207 2.06 3.8267 5.189 3.8267 2.649 0 4.526-1.1412 4.526-2.8696 0-2.3543-2.06-2.5383-4.856-2.8697-4.195-.5153-7.543-1.362-7.543-5.2607 0-3.4218 3.128-5.6657 7.359-5.6289 4.269.0369 7.359 2.023 7.654 5.9234h-3.091c-.221-1.9125-1.986-3.3482-4.563-3.3482s-4.379 1.1044-4.379 2.8328c0 2.0598 1.988 2.3175 4.711 2.6488 4.268.5154 7.69 1.3253 7.69 5.4816 0 3.4955-3.348 5.6657-7.506 5.6657-4.858 0-8.206-2.2806-8.28-6.4019h3.091-.002ZM23.8074 9.2591h-3.2448V6.9732h3.2448V1.9053C24.8487 1.348 25.8689.801 26.9523.2207c.0035 2.2649 0 4.4912 0 6.7525h3.7093v2.286h-3.7093v.5083c0 4.3054-.0105 8.6125-.0123 12.9161 0 .1612.0035.3208 0 .4838-.4838-.0578-.9466-.1525-1.4024-.3383-1.0167-.4155-1.5268-1.2026-1.6618-2.2561-.0473-.3734-.0596-.7538-.0596-1.1307l-.0088-10.1832ZM26.9456 23.1692h3.6427v3.0274c-.447 0-.9168.0053-1.3691-.0017-.2016-.0035-.4067-.0123-.6048-.0474-.859-.1542-1.3919-.6766-1.5654-1.5777-.0877-.461-.1034-1.4006-.1034-1.4006Z"></path> </svg>